<?xml version="1.0" encoding="UTF-8" standalone="no" ?>
<!DOCTYPE svg PUBLIC "-//W3C//DTD SVG 1.1//EN" "http://www.w3.org/Graphics/SVG/1.1/DTD/svg11.dtd">
<svg xmlns="http://www.w3.org/2000/svg" xmlns:xlink="http://www.w3.org/1999/xlink" version="1.1" width="1080" height="1080" viewBox="0 0 1080 1080" xml:space="preserve">
<desc>Created with Fabric.js 4.2.0</desc>
<defs>
</defs>
<rect x="0" y="0" width="100%" height="100%" fill="transparent"></rect>
<g transform="matrix(1 0 0 1 540 540)" id="33e42fb5-6c8b-419f-9982-6eab3da9fb7e"  >
<rect style="stroke: none; stroke-width: 1; stroke-dasharray: none; stroke-linecap: butt; stroke-dashoffset: 0; stroke-linejoin: miter; stroke-miterlimit: 4; fill: rgb(255,255,255); fill-opacity: 0; fill-rule: nonzero; opacity: 1;" vector-effect="non-scaling-stroke"  x="-540" y="-540" rx="0" ry="0" width="1080" height="1080" />
</g>
<g transform="matrix(1 0 0 1 540 540)" id="4367c639-8436-4c3f-9737-3c94c2b68e71"  >
</g>
<g transform="matrix(57.64 0 0 57.64 540 540)"  >
<g style="" vector-effect="non-scaling-stroke"   >
		<g transform="matrix(1 0 0 1 0 0)"  >
<path style="stroke: none; stroke-width: 1; stroke-dasharray: none; stroke-linecap: butt; stroke-dashoffset: 0; stroke-linejoin: miter; stroke-miterlimit: 4; fill: rgb(219,219,219); fill-rule: evenodd; opacity: 1;" vector-effect="non-scaling-stroke"  transform=" translate(-8, -7.5)" d="M 14 15.01 L 15 15.01 L 15 6.99 C 15 3.128 11.866 -0.0009999999999994458 8 -0.0009999999999994458 C 4.1419999999999995 -0.0009999999999994458 1 3.1290000000000004 1 6.99 L 1 15.01 L 2 15.01 L 2 6.99 C 2 3.684 4.691 0.9990000000000006 8 0.9990000000000006 C 11.314 0.9990000000000006 14 3.6810000000000005 14 6.99 L 14 15.01 M 3.4800000000000004 1.6560000000000006 C 3.1140000000000003 1.2540000000000004 2.5860000000000003 1.0010000000000006 2.0000000000000004 1.0010000000000006 C 0.8950000000000005 1.0010000000000006 4.440892098500626e-16 1.8960000000000006 4.440892098500626e-16 3.0010000000000003 C 4.440892098500626e-16 3.869 0.5520000000000005 4.607 1.3250000000000004 4.884 C 1.4270000000000005 4.563000000000001 1.5510000000000004 4.253 1.6960000000000004 3.954 C 1.2930000000000004 3.825 1.0010000000000003 3.447 1.0010000000000003 3.0010000000000003 C 1.0010000000000003 2.4490000000000003 1.4490000000000003 2.0010000000000003 2.0010000000000003 2.0010000000000003 C 2.3070000000000004 2.0010000000000003 2.5810000000000004 2.1390000000000002 2.7650000000000006 2.3550000000000004 C 2.9870000000000005 2.1050000000000004 3.2260000000000004 1.8720000000000003 3.4820000000000007 1.6560000000000006 M 12.522 1.6540000000000006 C 12.888 1.2530000000000006 13.415000000000001 1.0010000000000006 14.001000000000001 1.0010000000000006 C 15.106000000000002 1.0010000000000006 16.001 1.8960000000000006 16.001 3.0010000000000003 C 16.001 3.8680000000000003 15.449000000000002 4.607 14.677000000000001 4.884 C 14.576 4.563000000000001 14.452000000000002 4.252000000000001 14.307000000000002 3.9530000000000003 C 14.710000000000003 3.8240000000000003 15.001000000000001 3.446 15.001000000000001 3.0010000000000003 C 15.001000000000001 2.4490000000000003 14.553 2.0010000000000003 14.001000000000001 2.0010000000000003 C 13.696000000000002 2.0010000000000003 13.422 2.1380000000000003 13.239 2.354 C 13.017000000000001 2.104 12.778 1.871 12.522 1.6550000000000002" stroke-linecap="round" />
</g>
		<g transform="matrix(1 0 0 1 0.07 1.08)"  >
<path style="stroke: none; stroke-width: 1; stroke-dasharray: none; stroke-linecap: butt; stroke-dashoffset: 0; stroke-linejoin: miter; stroke-miterlimit: 4; fill: rgb(219,219,219); fill-rule: evenodd; opacity: 1;" vector-effect="non-scaling-stroke"  transform=" translate(-8.07, -8.58)" d="M 5.726 7.04 L 7.2829999999999995 7.04 L 7.2829999999999995 7.164 C 7.2829999999999995 7.447 7.249999999999999 7.6979999999999995 7.183 7.9159999999999995 C 7.117999999999999 8.118 7.008 8.306999999999999 6.853 8.482 C 6.503 8.876 6.058 9.072999999999999 5.518 9.072999999999999 C 4.991 9.072999999999999 4.539 8.883 4.163 8.501999999999999 C 3.7870000000000004 8.12 3.599 7.660999999999999 3.599 7.124999999999999 C 3.599 6.577999999999999 3.79 6.114999999999999 4.173 5.733999999999999 C 4.555 5.351999999999999 5.021 5.159999999999999 5.569 5.159999999999999 C 5.864 5.159999999999999 6.139 5.219999999999999 6.394 5.340999999999999 C 6.638 5.460999999999999 6.878 5.656999999999999 7.114 5.927 L 6.709 6.3149999999999995 C 6.3999999999999995 5.903 6.023 5.696999999999999 5.579 5.696999999999999 C 5.18 5.696999999999999 4.846 5.834999999999999 4.579 6.109999999999999 C 4.308999999999999 6.379999999999999 4.1739999999999995 6.718999999999999 4.1739999999999995 7.124999999999999 C 4.1739999999999995 7.544999999999999 4.324999999999999 7.890999999999999 4.6259999999999994 8.161999999999999 C 4.9079999999999995 8.414 5.212999999999999 8.54 5.5409999999999995 8.54 C 5.821 8.54 6.071999999999999 8.446 6.295 8.257 C 6.518 8.067 6.6419999999999995 7.8389999999999995 6.668 7.574 L 5.728 7.574 L 5.728 7.039 M 8.612 7.1 C 8.612 6.569999999999999 8.806000000000001 6.114 9.195 5.733 C 9.582 5.351999999999999 10.048 5.162 10.591000000000001 5.162 C 11.128000000000002 5.162 11.589 5.354 11.973 5.7379999999999995 C 12.359 6.122 12.551 6.582999999999999 12.551 7.122 C 12.551 7.664 12.357 8.122 11.97 8.501 C 11.581000000000001 8.879999999999999 11.112 9.07 10.562000000000001 9.07 C 10.075000000000001 9.07 9.639000000000001 8.902000000000001 9.251000000000001 8.565 C 8.825000000000001 8.192 8.611 7.704 8.611 7.1 M 9.185 7.106999999999999 C 9.185 7.523999999999999 9.325000000000001 7.866 9.605 8.135 C 9.883000000000001 8.404 10.205 8.538 10.569 8.538 C 10.964 8.538 11.298 8.401 11.569 8.128 C 11.841000000000001 7.851 11.977 7.515000000000001 11.977 7.118 C 11.977 6.716 11.843 6.3790000000000004 11.574 6.1080000000000005 C 11.307 5.835000000000001 10.977 5.698 10.583 5.698 C 10.191 5.698 9.86 5.835000000000001 9.59 6.1080000000000005 C 9.32 6.378 9.185 6.712000000000001 9.185 7.1080000000000005 M 9.001000000000001 11.026 C 9.526000000000002 11.052 9.813 11.089 9.813 11.089 C 10.084000000000001 11.114 10.137 10.993 9.929 10.816 C 9.929 10.816 9.154 10.003 7.996 10.003 C 6.837000000000001 10.003 6.073 10.816 6.073 10.816 C 5.862 10.99 5.920000000000001 11.116000000000001 6.1930000000000005 11.089 C 6.1930000000000005 11.089 6.479 11.052 7.003 11.026 L 7.003 11.503 C 7.003 11.771 7.227 12.003 7.503 12.003 C 7.771 12.003 8.003 11.78 8.003 11.505 L 8.003 11.253 L 8.003 11.503 C 8.003 11.771 8.227 12.003 8.503 12.003 C 8.771 12.003 9.003 11.78 9.003 11.505 L 9.003 11.027000000000001 M 8.003 10.004000000000001 C 8.555 10.004000000000001 9.003 9.780000000000001 9.003 9.504000000000001 C 9.003 9.228000000000002 8.555 9.004000000000001 8.003 9.004000000000001 C 7.4510000000000005 9.004000000000001 7.003 9.228000000000002 7.003 9.504000000000001 C 7.003 9.780000000000001 7.4510000000000005 10.004000000000001 8.003 10.004000000000001" stroke-linecap="round" />
</g>
</g>
</g>
</svg>